<svg xmlns="http://www.w3.org/2000/svg" viewBox="0 0 1402.25 866.4"><defs><style>.cls-1{fill:#f28e02;}</style></defs><g id="Слой_2" data-name="Слой 2"><g id="Слой_1-2" data-name="Слой 1"><path class="cls-1" d="M.7,377c61-97,195.47,11.47,317-101,117-108.27,30.24-235.64,119-272,77.76-31.86,155,137.89,327,157,108,12,153-32,267-35,75-2,327.26,23.74,341,59,18,46.2-120.71,112.11-99,217,12,58,80,76,120,147,71.29,126.56-269.56,327.93-592,317-65-2.2-273.2,12.44-319-71-35-63.77-3.39-98.48-18-169C440.7,515-20.3,529,.7,377Z"/></g></g></svg>