<svg xmlns="http://www.w3.org/2000/svg" viewBox="0 0 1249.99 1065.55"><defs><style>.cls-1{fill:#f28e02;}</style></defs><g id="Слой_2" data-name="Слой 2"><g id="Слой_1-2" data-name="Слой 1"><path class="cls-1" d="M1196.58,55.84c108,107.6,19.07,323.74,13,338-46.48,109.16-97.09,96.84-129,184-68,185.68,122,350.1,54,445-37.95,53-128.44,45.38-252,35-210.39-17.68-260.14-82.57-536-164-214.29-63.25-297-57.37-332-133-32.91-71.13-6.88-178.19,55-232,77.72-67.58,178.44-22,206-75,32.34-62.18-97.45-142.14-72-241,17.9-69.56,107.59-128.77,183-121,118.88,12.25,139.19,184.48,232,185,89.2.5,98.15-158.45,251-236C965.53-7.85,1116.76-23.72,1196.58,55.84Z"/></g></g></svg>